<?xml version="1.0" encoding="UTF-8" standalone="no"?>
<!-- Created with Inkscape (http://www.inkscape.org/) -->

<svg
   width="640mm"
   height="640mm"
   viewBox="0 0 640 640"
   version="1.1"
   id="svg5"
   inkscape:version="1.2.2 (732a01da63, 2022-12-09)"
   sodipodi:docname="shoes.svg"
   inkscape:export-filename="shoes-pic.png"
   inkscape:export-xdpi="96"
   inkscape:export-ydpi="96"
   xmlns:inkscape="http://www.inkscape.org/namespaces/inkscape"
   xmlns:sodipodi="http://sodipodi.sourceforge.net/DTD/sodipodi-0.dtd"
   xmlns="http://www.w3.org/2000/svg"
   xmlns:svg="http://www.w3.org/2000/svg">
  <sodipodi:namedview
     id="namedview7"
     pagecolor="#ffffff"
     bordercolor="#000000"
     borderopacity="0.25"
     inkscape:showpageshadow="2"
     inkscape:pageopacity="0.0"
     inkscape:pagecheckerboard="0"
     inkscape:deskcolor="#d1d1d1"
     inkscape:document-units="mm"
     showgrid="false"
     inkscape:zoom="0.11692445"
     inkscape:cx="-812.49044"
     inkscape:cy="957.88346"
     inkscape:window-width="1366"
     inkscape:window-height="705"
     inkscape:window-x="-8"
     inkscape:window-y="-8"
     inkscape:window-maximized="1"
     inkscape:current-layer="layer1" />
  <defs
     id="defs2" />
  <g
     inkscape:label="Layer 1"
     inkscape:groupmode="layer"
     id="layer1">
    <rect
       style="fill:#000000;stroke-width:4.48601"
       id="rect622"
       width="780.68573"
       height="780.68573"
       x="-97.302856"
       y="-70.148567"
       ry="7.2667933" />
    <path
       style="fill:#ffffff;stroke-width:5.68732"
       d="m 243.84666,177.96373 c -2.29871,17.6263 -70.67186,163.10893 -102.95242,205.95946 -32.28056,42.85054 -52.322494,54.28494 -71.564212,78.49016 -19.241718,24.20522 -22.046789,63.70507 2.259749,83.30056 24.306533,19.5955 55.433003,2.89854 95.849873,-15.72139 40.41686,-18.61993 94.24307,-74.23291 129.82841,-109.54274 35.58534,-35.30984 53.45501,-70.50597 85.19989,-99.39985 31.74489,-28.89388 75.8973,-47.32397 103.45701,-73.02848 27.55971,-25.70451 64.16647,-53.21665 62.88562,-77.08562 C 547.52973,147.06687 435.36205,40.214978 423.27487,38.249154 c -12.08717,-1.965823 -24.30302,-1.73684 -30.66407,6.91541 -6.36105,8.652248 -3.41661,19.926851 0,30.428534 3.41661,10.501682 19.99932,11.283756 21.08373,28.973002 1.0844,17.68924 -14.57526,43.0514 -38.51298,53.03986 -23.9377,9.98848 -54.48545,15.82556 -68.37718,8.01233 -13.89173,-7.81323 -10.41474,-11.143 -13.20062,-22.39379 -2.78587,-11.25079 -11.10597,-20.43274 -21.80713,-20.03212 -10.70116,0.40062 -21.40428,6.83592 -24.34281,18.35906 -2.93854,11.52314 -1.30844,18.78599 -3.60715,36.41229 z"
       id="path236"
       sodipodi:nodetypes="zzzzzzzzzzzzzzzzzzz" />
    <path
       id="rect548"
       style="fill:#000000;stroke-width:4.89221"
       d="m 143.43694,380.42007 c -0.86462,1.21673 -1.7229,2.41492 -2.54264,3.50307 -3.12458,4.14769 -6.10269,7.92171 -9.0083,11.52079 l 10.7962,8.52809 c 4.00509,3.16366 10.28546,2.96333 14.08112,-0.44879 l 0.59552,-0.53526 c 3.79566,-3.4121 3.62708,-8.70632 -0.37802,-11.86998 z" />
    <path
       id="rect558"
       style="fill:#000000;stroke-width:4.89221"
       d="m 164.78823,345.89043 c -3.31182,5.83587 -6.56136,11.4513 -9.64837,16.52679 l 21.85447,17.26252 c 4.00509,3.16366 10.2848,2.96399 14.08046,-0.44813 l 0.59552,-0.5359 c 3.79565,-3.41212 3.62708,-8.70568 -0.37802,-11.86934 z" />
    <path
       id="rect560"
       style="fill:#000000;stroke-width:4.89221"
       d="m 185.02514,308.44539 c -3.00998,5.80751 -6.0063,11.48267 -8.99193,17.04566 l 24.41217,19.28301 c 4.0051,3.16364 10.28547,2.96398 14.08112,-0.44813 l 0.59553,-0.53592 c 3.79566,-3.4121 3.62708,-8.70568 -0.37803,-11.86933 z" />
    <path
       id="rect562"
       style="fill:#000000;stroke-width:4.89221"
       d="m 202.90743,272.91403 c -2.81574,5.76309 -5.68987,11.55837 -8.6008,17.35424 l 30.48147,24.07738 c 4.00509,3.16365 10.28546,2.96399 14.08111,-0.44812 l 0.59554,-0.5359 c 3.79565,-3.41212 3.62707,-8.7057 -0.37802,-11.86935 z" />
    <path
       style="fill:#ffffff;stroke-width:5.68732"
       d="m 96.404771,565.0689 c 1.075023,5.7384 3.144172,13.55826 11.880509,15.69156 8.73634,2.13331 13.37369,2.22511 40.19092,-8.6786 26.81722,-10.90371 85.79652,-51.78672 116.65251,-77.56031 30.85599,-25.7736 67.80975,-74.52231 91.80254,-98.25743 23.99277,-23.73513 50.2045,-45.90127 50.2045,-45.90127 0,0 45.613,-31.0028 70.28635,-49.48732 24.67335,-18.48451 61.3347,-47.45485 78.47267,-64.21553 17.13798,-16.76068 29.14546,-20.36962 28.68829,-34.42596 -0.45716,-14.05634 -13.372,-28.57891 -24.21101,-27.16687 -10.83901,1.41204 -13.16606,19.73739 -25.32726,32.90454 -12.1612,13.16715 -34.19193,37.45789 -60.49155,57.76067 -26.29961,20.30279 -68.83748,40.51785 -90.91129,61.20876 -22.07381,20.6909 -28.16703,33.13057 -55.90614,66.45416 -27.73911,33.32359 -56.99537,61.10836 -89.57265,90.99212 -32.57728,29.88376 -60.67488,46.74672 -92.02755,61.78799 -31.35266,15.04128 -50.805875,13.15507 -49.730839,18.89349 z"
       id="path618"
       sodipodi:nodetypes="zzzzzczzzzzzzzzzz" />
    <path
       style="fill:#ffffff;stroke-width:5.68732"
       d="m 192.79677,535.48405 311.38532,-2.02856 -108.52845,14.19999 159.24265,2.02856 -189.67119,13.1857 161.27125,10.14285 -196.77117,4.05714 152.14263,17.24284 -367.17094,-14.19999 z"
       id="path626"
       sodipodi:nodetypes="cccccccccc" />
  </g>
</svg>
